<?xml version="1.0" encoding="utf-8"?>
<!-- Generator: Adobe Illustrator 26.0.1, SVG Export Plug-In . SVG Version: 6.00 Build 0)  -->
<svg version="1.1" id="Layer_1" xmlns="http://www.w3.org/2000/svg" xmlns:xlink="http://www.w3.org/1999/xlink" x="0px" y="0px"
	 viewBox="0 0 651.4 525.7" style="enable-background:new 0 0 651.4 525.7;" xml:space="preserve">
<style type="text/css">
	.st0{fill:#FFFFFF;}
</style>
<rect x="262" y="383.6" class="st0" width="78.7" height="74"/>
<g id="Layer_2_00000147184690243655602590000016101916750439563177_">
	<g id="Layer_2-2">
		<path d="M642.6,47.8c-22-24.3-98.7-14.1-174.5,36.7C422.2,53.8,367,35.1,306.7,35.1c-40.2,0-79.9,8.4-116.6,24.8
			c-8.8-6.7-17.7-12.9-26.7-18.5c-2.2-1.4-4.5-2.8-6.8-4.1s-4.5-2.6-6.8-3.9c-9-5-18.1-9.5-26.9-13.4c-1.1-0.5-2.2-1-3.3-1.4
			c-2.2-0.9-4.4-1.9-6.6-2.7C94.5,8.5,76.9,3.7,61.5,1.4c-1.8-0.3-3.5-0.5-5.3-0.7c-2.6-0.3-5.1-0.5-7.6-0.6C47,0.1,45.4,0,43.9,0
			h-2.3C36.8,0,32,0.6,27.3,1.6c-1.7,0.4-3.4,0.9-5.1,1.5c-1,0.4-2,0.8-3,1.3c-1.8,0.9-3.5,1.9-5,3.2c-3.4,3-6.2,6.6-8.1,10.8
			c-1.1,2.3-2,4.8-2.8,7.2c-0.6,2-1.1,4-1.5,6.2c-0.6,3-1,6.1-1.3,9.1c-0.2,2.4-0.4,4.9-0.5,7.5c-0.1,12.7,1.2,25.4,3.9,37.9
			c0.4,2.1,0.9,4.3,1.5,6.5s1.1,4.4,1.7,6.6c0.6,2.2,1.3,4.5,1.9,6.8c0.7,2.3,1.4,4.6,2.1,6.9c0.4,1.2,0.8,2.3,1.2,3.5
			c6,17.6,13.6,34.6,22.5,50.8c1.3,2.5,2.8,5,4.2,7.5c2.9,5,5.9,10,9.2,15l0,0c-22,39.6-34.4,83.4-34.4,127
			c0,140,130.2,209,295.7,209s290.2-69,290.2-209c-0.1-26.3-4.4-52.5-12.7-77.5C646.2,164.5,664.1,71.5,642.6,47.8z M302.3,438
			c-12.4,0-24.5-5.3-24.5-18.5s12.1-29.4,24.5-29.4s24.5,16.1,24.5,29.4S314.7,438,302.3,438z"/>
		<path class="st0" d="M568,194.7c-18.1-33.8-42.4-64-71.6-88.8c50.6-36,100.3-43.4,115.1-27.1C626.5,95.4,614,146.4,568,194.7z"/>
		<path class="st0" d="M151.1,80.8c-32.2,20.5-60.3,46.8-82.8,77.6C32.7,105.6,26.8,54.3,44,39.9C60.3,26.2,106.7,38.6,151.1,80.8z"
			/>
		<path class="st0" d="M235.9,367c-16.3,36.1-56.7,44.6-92.8,28.3s-54.1-51.1-37.9-87.2s63.9-47.7,100-31.4S252.1,331,235.9,367z"/>
		<path class="st0" d="M499,318.9c6.6,39-10.9,61-49.1,71.2s-79.1,4.1-89.3-34.2s1.5-70.3,39.8-80.5S492,277.1,499,318.9z"/>
		<circle cx="170.8" cy="332.5" r="21.8"/>
		<circle cx="426.6" cy="332.5" r="21.8"/>
	</g>
</g>
</svg>
