<svg xmlns="http://www.w3.org/2000/svg" viewBox="0 0 651.37 525.73"><defs><style>.cls-1{fill:#fff;}</style></defs><g id="Layer_2" data-name="Layer 2"><g id="Layer_2-2" data-name="Layer 2"><path d="M642.6,47.75c-22-24.28-98.73-14.08-174.52,36.74C422.22,53.84,367,35.06,306.74,35.06A286.53,286.53,0,0,0,190.16,59.82c-8.75-6.71-17.71-12.87-26.72-18.46-2.25-1.4-4.51-2.77-6.77-4.09s-4.51-2.62-6.77-3.88c-9-5-18.06-9.5-26.93-13.4-1.11-.49-2.22-1-3.32-1.43-2.21-.94-4.4-1.85-6.59-2.71C94.5,8.47,76.88,3.65,61.54,1.43,59.74,1.17,58,.94,56.23.75,53.62.47,51.09.26,48.65.14,47,.06,45.42,0,43.87,0h-2.3A69.38,69.38,0,0,0,27.26,1.62a39.36,39.36,0,0,0-5.08,1.5,31.42,31.42,0,0,0-3,1.27,24.25,24.25,0,0,0-5,3.19A32,32,0,0,0,6.11,18.35a50,50,0,0,0-2.79,7.24c-.6,1.95-1.11,4-1.55,6.17A85.13,85.13,0,0,0,.46,40.9Q.12,44.52,0,48.4A168.88,168.88,0,0,0,3.94,86.27q.67,3.21,1.45,6.48t1.68,6.63Q8,102.73,9,106.13c.67,2.27,1.39,4.57,2.14,6.88.38,1.15.76,2.31,1.16,3.48a324.06,324.06,0,0,0,22.54,50.83c1.35,2.49,2.75,5,4.19,7.46q4.32,7.49,9.15,15h0c-22,39.59-34.4,83.36-34.4,127,0,140.05,130.24,209,295.71,209s290.25-69,290.25-209a249.14,249.14,0,0,0-12.7-77.5C646.18,164.46,664.13,71.5,642.6,47.75ZM302.32,438c-12.36,0-24.48-5.3-24.48-18.52s12.12-29.35,24.48-29.35,24.48,16.13,24.48,29.35S314.68,438,302.32,438Z"/><path class="cls-1" d="M568,194.67a305.72,305.72,0,0,0-71.65-88.82c50.6-36,100.27-43.42,115.07-27.09C626.55,95.43,614,146.42,568,194.67Z"/><path class="cls-1" d="M151.05,80.8a307.5,307.5,0,0,0-82.81,77.62C32.7,105.59,26.81,54.3,44,39.92,60.33,26.19,106.66,38.61,151.05,80.8Z"/><path class="cls-1" d="M235.88,367c-16.27,36.07-56.68,44.56-92.75,28.3S89,344.21,105.24,308.14s63.87-47.7,100-31.44S252.14,331,235.88,367Z"/><path class="cls-1" d="M499,318.87c6.6,39-10.88,61-49.11,71.25s-79.06,4.06-89.3-34.16,1.55-70.27,39.77-80.51S492,277.1,499,318.87Z"/></g></g></svg>